PathFileType	4	(X/Y/Z)	s02c0202.trc
DataRate	CameraRate	NumFrames	NumMarkers	Units	OrigDataRate	OrigDataStartFrame	OrigNumFrames
200	200	4	50	mm	200	1000	2000
Frame#	Time	racr			lacr			c7			jug			rlel			rdr			llel			ldr			s2			lic			ric			lasi			rasi			rpsi			lpsi			rgt			lgt			rth1			rth2			rth3			rth4			rlfc			rmfc			rsh1			rsh2			rsh3			rsh4			rlmal			rmmal			rtoe			rmt5			rmt1			lth1			lth2			lth4			lth3			llfc			lmfc			lsh1			lsh2			lsh3			lsh4			llmal			lmmal			lcal			ltoe			lmt5			SBIKE			LBIKE			RBIKE			
		X1	Y1	Z1	X2	Y2	Z2	X3	Y3	Z3	X4	Y4	Z4	X5	Y5	Z5	X6	Y6	Z6	X7	Y7	Z7	X8	Y8	Z8	X9	Y9	Z9	X10	Y10	Z10	X11	Y11	Z11	X12	Y12	Z12	X13	Y13	Z13	X14	Y14	Z14	X15	Y15	Z15	X16	Y16	Z16	X17	Y17	Z17	X18	Y18	Z18	X19	Y19	Z19	X20	Y20	Z20	X21	Y21	Z21	X22	Y22	Z22	X23	Y23	Z23	X24	Y24	Z24	X25	Y25	Z25	X26	Y26	Z26	X27	Y27	Z27	X28	Y28	Z28	X29	Y29	Z29	X30	Y30	Z30	X31	Y31	Z31	X32	Y32	Z32	X33	Y33	Z33	X34	Y34	Z34	X35	Y35	Z35	X36	Y36	Z36	X37	Y37	Z37	X38	Y38	Z38	X39	Y39	Z39	X40	Y40	Z40	X41	Y41	Z41	X42	Y42	Z42	X43	Y43	Z43	X44	Y44	Z44	X45	Y45	Z45	X46	Y46	Z46	X47	Y47	Z47	X48	Y48	Z48	X49	Y49	Z49	X50	Y50	Z50	
1000	5.0000	602.317131	1228.072592	-234.024525	551.053885	1219.854618	-542.503960	554.989509	1264.373461	-397.350966	532.466782	1127.772057	-380.679201	560.594086	1015.699686	-67.026482	700.854574	883.795921	-130.342475	505.337960	960.779113	-647.995203	682.371090	884.496976	-537.013379	27.910100	1133.634440	-322.653787	162.041157	1136.602240	-461.638580	155.901408	1124.818416	-178.108631	205.319909	1105.835660	-435.177375	206.111609	1097.677583	-203.378817	49.825512	1163.331259	-278.250621	53.153923	1170.898649	-361.726359	112.584138	1036.090019	-144.587553	124.020472	1052.836632	-503.257831	183.397325	954.879642	-126.023073	242.779111	889.533593	-120.409374	262.873199	808.723799	-97.954750	271.924837	902.037237	-141.129083	304.457335	673.142060	-131.496022	306.871709	656.892291	-238.346277	275.019991	570.377699	-115.175393	267.797666	482.818731	-132.418469	221.262731	410.597618	-132.864268	286.028128	481.050888	-167.707569	175.417153	302.901241	-143.624115	192.076962	319.964506	-220.933151	327.697982	131.390528	-189.947774	228.957894	178.518883	-130.868675	258.497274	177.242537	-236.769319	255.775473	1021.442761	-504.215875	341.036288	1013.238575	-494.075288	350.847229	1043.979892	-475.828401	413.374850	961.490354	-492.882942	505.464544	924.937376	-469.738938	507.980036	896.186078	-357.866546	473.670061	833.939738	-485.933527	444.138687	753.754923	-472.839899	376.393756	694.496612	-480.168734	462.146241	742.946102	-437.754853	298.163619	607.016811	-469.692863	316.614051	597.545731	-393.069871	219.744326	574.498745	-433.072256	487.060628	469.842300	-447.077773	378.502017	484.457936	-503.992765	-165.141034	855.837849	-319.717385	32.720881	82.054346	-515.342072	32.536733	81.698475	-115.701152	
1001	5.0050	603.358638	1225.918359	-237.067751	548.800031	1219.416749	-543.924161	554.377670	1263.296177	-399.587152	531.307366	1126.731065	-383.356038	561.295964	1016.383228	-67.056455	700.597351	883.787443	-130.267772	503.653839	959.525971	-647.201770	681.819754	884.753340	-537.073512	26.329780	1135.336324	-323.297944	162.749501	1135.610285	-460.071766	155.611011	1125.990242	-177.273981	204.806877	1103.634158	-433.074741	205.827384	1098.438174	-202.739695	49.611899	1165.357854	-277.252208	52.603810	1172.604962	-360.761870	112.332155	1037.220442	-143.471126	122.839471	1053.451692	-501.818509	183.974472	956.504710	-125.843351	244.509331	892.198156	-120.247688	265.979560	811.724822	-97.838933	273.431305	905.232131	-140.856569	308.940542	676.413643	-131.368737	311.233808	660.266486	-238.390661	277.537089	573.939773	-115.329563	267.624608	486.651145	-132.919928	219.052119	415.709816	-133.205347	285.514710	484.338599	-168.344392	169.585117	309.604442	-143.847934	186.626281	326.244890	-221.357213	318.018128	134.756128	-189.759505	220.279725	184.080503	-131.129048	249.773541	181.796358	-237.025268	253.232080	1019.224612	-500.167033	339.641375	1010.861077	-494.013149	350.036795	1041.569071	-476.105538	411.194619	958.124311	-493.094368	503.168790	920.162252	-470.409499	506.215326	891.351291	-358.756447	471.632685	827.760390	-487.140009	444.461382	747.619407	-473.749127	377.858124	687.095354	-480.830555	462.798917	737.252368	-438.724908	301.864870	597.845143	-469.641079	319.999684	588.765212	-393.156525	223.878412	562.207105	-433.394689	495.318100	468.461487	-447.286139	386.229981	478.627670	-504.480937	-165.191997	855.133203	-321.494828	32.731480	81.986303	-515.361025	32.890597	81.417211	-115.528081	
1002	5.0100	604.465329	1223.921738	-239.627433	546.484180	1218.894838	-545.559991	553.709881	1262.286631	-401.589797	530.248589	1125.744772	-385.710713	561.798263	1017.015620	-66.994056	700.200522	883.801454	-130.202602	502.041472	958.327427	-646.256837	681.196071	884.649580	-536.851233	26.095263	1137.152135	-322.567918	162.429232	1135.622202	-459.421984	154.743229	1126.317655	-177.049681	204.265184	1103.486027	-432.265892	205.477414	1099.025189	-202.161555	49.377755	1167.313342	-276.284776	52.366893	1174.466149	-359.726734	112.338341	1038.336000	-142.327187	121.717125	1053.675371	-500.344573	184.874330	958.230137	-125.507535	246.430079	895.019017	-120.118074	269.381357	814.812737	-97.910493	275.126053	908.525278	-140.832378	313.995062	679.883333	-131.211913	315.714452	663.812404	-238.814622	280.421024	577.629208	-115.609242	267.735083	490.693253	-133.448384	217.092453	421.151736	-133.440458	285.290209	487.946712	-169.043048	163.904251	316.746171	-144.063424	181.474739	332.997927	-221.719783	308.668049	138.696093	-189.931508	211.969223	190.073808	-131.265996	241.545026	186.989809	-237.161016	253.122879	1018.318823	-503.781191	338.107215	1007.864159	-494.152039	348.777258	1038.349578	-476.773404	408.882170	953.962705	-493.549671	500.479548	914.358789	-471.322785	504.197367	885.570940	-359.856988	470.659305	821.744514	-487.066644	444.471972	740.323940	-474.668593	379.149253	678.257340	-480.756571	463.132573	730.478521	-439.679957	304.925568	587.942290	-469.630830	323.335283	578.960075	-393.066126	228.119269	549.211706	-433.565204	503.063469	466.323574	-447.570503	393.612782	472.251755	-504.891498	-165.167078	855.041642	-321.736439	32.747158	81.898254	-515.384767	32.902993	81.398074	-115.530715	
1003	5.0150	605.430975	1222.013557	-241.983440	544.284653	1218.496697	-546.986917	553.113103	1261.352247	-403.435280	529.071231	1124.874944	-387.854495	562.123106	1017.540225	-66.863608	699.792131	883.809734	-130.210889	500.396009	957.106735	-645.169235	680.550155	884.598779	-536.729758	25.928580	1138.733007	-321.783816	162.222618	1135.330427	-458.646945	155.190602	1127.601500	-175.762465	203.779016	1102.956250	-431.339088	205.214872	1099.562833	-201.502548	49.281836	1169.044598	-275.106226	52.315304	1176.444449	-358.600301	112.618100	1039.414410	-141.174727	120.582317	1053.733071	-498.768233	185.963094	959.975669	-125.243326	248.652762	897.874359	-120.063052	273.153872	818.035073	-98.128160	277.082224	911.814570	-140.901797	319.246850	683.398603	-131.420664	320.526825	667.371519	-239.231077	283.678445	581.380924	-116.028305	268.129242	494.963776	-133.990153	215.444803	426.979404	-133.699618	285.281549	491.817296	-169.801415	158.596642	324.337223	-144.225251	176.594872	340.141465	-221.977723	299.599992	143.128218	-190.001426	203.916214	196.753816	-131.398692	233.407612	192.692456	-237.536557	250.515609	1015.613267	-499.822991	336.584239	1004.594503	-494.325198	347.864222	1034.693623	-477.175657	406.416932	949.320528	-494.132665	497.613985	907.743350	-472.244855	501.715198	879.005672	-361.007358	468.711708	814.062398	-487.991384	444.252173	732.028008	-475.400432	380.368388	668.348459	-481.189393	463.100934	722.772548	-440.394022	308.032699	577.273212	-469.477502	326.560651	568.729237	-392.887393	232.134697	535.368730	-433.554835	510.300060	463.234967	-447.859057	400.653646	465.084802	-505.282571	-165.163122	854.885499	-322.244220	32.739983	81.796211	-515.410920	32.903916	81.388093	-115.548616	
